<?xml version="1.0" encoding="UTF-8" standalone="no"?>
<?xml-stylesheet href="https://cdnjs.cloudflare.com/ajax/libs/animate.css/3.7.0/animate.min.css" type="text/css"?>
<?xml-stylesheet href="styles.css" type="text/css"?>
<!DOCTYPE svg PUBLIC "-//W3C//DTD SVG 1.0//EN" "http://www.w3.org/TR/2001/REC-SVG-20010904/DTD/svg10.dtd">
<svg height="100" width="100" viewBox="0 0 100 100" xmlns="http://www.w3.org/2000/svg">
  <defs>
    <radialGradient id="gradYellow" cx="50%" cy="50%" r="80%" fx="90%" fy="80%">
      <stop offset="0%" style="stop-color:yellow; stop-opacity:1"/>
      <stop offset="100%" style="stop-color:orange ;stop-opacity:1"/>
    </radialGradient>
    <radialGradient id="gradGray" cx="50%" cy="50%" r="50%" fx="50%" fy="50%">
      <stop offset="0%" style="stop-color:white; stop-opacity:1"/>
      <stop offset="100%" style="stop-color:darkgray ;stop-opacity:1"/>
    </radialGradient>
    <linearGradient id="gradWhite" x1="40%" y1="50%" x2="90%" y2="90%">
      <stop offset="0%" style="stop-color:white;stop-opacity:1"/>
      <stop offset="100%" style="stop-color:darkgray;stop-opacity:1"/>
    </linearGradient>
  </defs>

  <!-- Moon -->
  <symbol id="moon">
    <path d="M60,20 A30,30 0 1,0 90,65 22,22 0 1,1 60,20z" fill="url(#gradYellow)"/>
  </symbol>

  <!-- Star -->
  <symbol id="star">
    <polygon points="5,0 2,10 10,4 0,4 8,10" style="fill:url(#gradYellow);fill-rule:nonzero;"/>
  </symbol>

  <!-- Small Gray Cloud -->
  <symbol id="grayCloud">
    <path d="M20,15 Q25,0 45,11 Q60,5 60,20 A30,15 5 1,1 20,15 Z"/>
  </symbol>

  <!-- Snow Flake -->
  <symbol id="snowFlake">
    <circle cx="5" cy="5" r="2" fill="lightblue"/>
    <path fill="blue" d="M5,0 L5,10 M0,5 L10,5 M1.5,1.5 L8.5,8.5 M8.5,1.5 L1.5,8.5"/>
    <path fill="blue" d="M3.5,0.25 L5,2 L6.5,0.25 M3.5,9.75 L5,8 L6.5,9.75"/>
    <path fill="blue" d="M0.25,3.5 L2,5 L0.25,6.5 M9.75,3.5 L8,5 L9.75,6.5"/>
    <path fill="blue" d="M0.75,2.90 L2.85,2.85 L2.90,0.75 M7.25,9.35 L7.15,7.15 L9.35,7.25"/>
    <path fill="blue" d="M0.75,7.25 L2.85,7.15 L2.90,9.35 M7.15,0.75 L7.25,2.85 L9.35,2.90"/>
  </symbol>

  <!-- White Cloud -->
  <symbol id="whiteCloud">
    <path fill="url(#gradWhite)"
          d="M11,47 Q13,37 21,42 Q31,30 41,38 A28,21 -25 1,1 35,75 Q23,85 19,73 A12,12 0 0,1 11,47Z"/>
  </symbol>

  <use href="#moon" x="-20" y="-15"/>
  <use href="#star" x="40" y="10" class="stars animated infinite flash"/>
  <use href="#star" x="50" y="20" class="stars animated infinite flash delay-1s"/>
  <use href="#star" x="40" y="30" class="stars animated infinite flash delay-2s"/>
  <use href="#grayCloud" class="small-cloud" fill="url(#gradGray)"/>
  <use id="snowFlake2" href="#snowFlake" x="30" y="65"/>
  <use id="snowFlake4" href="#snowFlake" x="45" y="65"/>
  <use id="snowFlake5" href="#snowFlake" x="58" y="65"/>
  <use href="#whiteCloud" x="7"/>
</svg>
