<?xml version="1.0" encoding="UTF-8" standalone="no"?>
<?xml-stylesheet href="styles.css" type="text/css"?>
<!DOCTYPE svg PUBLIC "-//W3C//DTD SVG 1.0//EN" "http://www.w3.org/TR/2001/REC-SVG-20010904/DTD/svg10.dtd">
<svg height="100" width="100" viewBox="0 0 100 100" xmlns="http://www.w3.org/2000/svg">
  <defs>
    <radialGradient id="gradDarkGray" cx="50%" cy="50%" r="50%" fx="50%" fy="50%">
      <stop offset="0%" style="stop-color:white; stop-opacity:1"/>
      <stop offset="70%" style="stop-color:gray; stop-opacity:1"/>
      <stop offset="100%" style="stop-color:dimgray ;stop-opacity:1"/>
    </radialGradient>
    <radialGradient id="gradGray" cx="50%" cy="50%" r="50%" fx="50%" fy="50%">
      <stop offset="0%" style="stop-color:white; stop-opacity:1"/>
      <stop offset="100%" style="stop-color:darkgray ;stop-opacity:1"/>
    </radialGradient>
  </defs>

  <!-- Small Gray Cloud -->
  <symbol id="grayCloud">
    <path d="M20,15 Q25,0 45,11 Q60,5 60,20 A30,15 5 1,1 20,15 Z"/>
  </symbol>

  <!-- Mist -->
  <symbol id="mist">
    <path d="M5,34 L43,34"/>
    <path d="M10,40 L40,40 Q51.5,40 50,35 T60,30 L80,30"/>
    <path d="M15,45 L45,45 Q56.5,45 55,40 T65,35 L90,35"/>
    <path d="M60,42 L85,42"/>
  </symbol>

  <use href="#grayCloud" class="small-cloud" fill="url(#gradDarkGray)" x="0" y="20"/>
  <use href="#grayCloud" x="30" y="30" class="reverse-small-cloud" fill="url(#gradGray)"/>
  <use id="mist" href="#mist" x="0" y="30"/>
</svg>
