<?xml version="1.0" encoding="UTF-8" standalone="no"?>
<?xml-stylesheet href="https://cdnjs.cloudflare.com/ajax/libs/animate.css/3.7.0/animate.min.css" type="text/css"?>
<?xml-stylesheet href="styles.css" type="text/css"?>
<!DOCTYPE svg PUBLIC "-//W3C//DTD SVG 1.0//EN" "http://www.w3.org/TR/2001/REC-SVG-20010904/DTD/svg10.dtd">
<svg height="100" width="100" viewBox="0 0 100 100" xmlns="http://www.w3.org/2000/svg">
  <defs>
    <radialGradient id="gradYellow" cx="50%" cy="50%" r="80%" fx="90%" fy="80%">
      <stop offset="0%" style="stop-color:yellow; stop-opacity:1"/>
      <stop offset="100%" style="stop-color:orange ;stop-opacity:1"/>
    </radialGradient>
    <radialGradient id="gradGray" cx="50%" cy="50%" r="50%" fx="50%" fy="50%">
      <stop offset="0%" style="stop-color:white; stop-opacity:1"/>
      <stop offset="100%" style="stop-color:darkgray ;stop-opacity:1"/>
    </radialGradient>
    <linearGradient id="gradWhite" x1="40%" y1="50%" x2="90%" y2="90%">
      <stop offset="0%" style="stop-color:white;stop-opacity:1"/>
      <stop offset="100%" style="stop-color:darkgray;stop-opacity:1"/>
    </linearGradient>
  </defs>

  <!-- Moon -->
  <symbol id="moon">
    <path d="M60,20 A30,30 0 1,0 90,65 22,22 0 1,1 60,20z" fill="url(#gradYellow)"/>
  </symbol>

  <!-- Star -->
  <symbol id="star">
    <polygon points="5,0 2,10 10,4 0,4 8,10" style="fill:url(#gradYellow);fill-rule:nonzero;"/>
  </symbol>

  <!-- Small Gray Cloud -->
  <symbol id="grayCloud">
    <path d="M20,15 Q25,0 45,11 Q60,5 60,20 A30,15 5 1,1 20,15 Z"/>
  </symbol>

  <!-- White Cloud -->
  <symbol id="whiteCloud">
    <path fill="url(#gradWhite)"
          d="M11,47 Q13,37 21,42 Q31,30 41,38 A28,21 -25 1,1 35,75 Q23,85 19,73 A12,12 0 0,1 11,47Z"/>
  </symbol>

  <use href="#moon" x="-20" y="-15"/>
  <use href="#star" x="40" y="10" class="stars animated infinite flash"/>
  <use href="#star" x="50" y="20" class="stars animated infinite flash delay-1s"/>
  <use href="#star" x="40" y="30" class="stars animated infinite flash delay-2s"/>
  <use href="#grayCloud" class="small-cloud" fill="url(#gradGray)"/>
  <use href="#whiteCloud" x="7"/>
</svg>
