<?xml version="1.0" encoding="UTF-8" standalone="no"?>
<?xml-stylesheet href="styles.css" type="text/css"?>
<!DOCTYPE svg PUBLIC "-//W3C//DTD SVG 1.0//EN" "http://www.w3.org/TR/2001/REC-SVG-20010904/DTD/svg10.dtd">
<svg height="100" width="100" viewBox="0 0 100 100" xmlns="http://www.w3.org/2000/svg">
  <defs>
    <radialGradient id="gradYellow" cx="50%" cy="50%" r="80%" fx="90%" fy="80%">
      <stop offset="0%" style="stop-color:yellow; stop-opacity:1"/>
      <stop offset="100%" style="stop-color:orange ;stop-opacity:1"/>
    </radialGradient>
    <radialGradient id="gradGray" cx="50%" cy="50%" r="50%" fx="50%" fy="50%">
      <stop offset="0%" style="stop-color:white; stop-opacity:1"/>
      <stop offset="100%" style="stop-color:darkgray ;stop-opacity:1"/>
    </radialGradient>
    <linearGradient id="gradWhite" x1="40%" y1="50%" x2="90%" y2="90%">
      <stop offset="0%" style="stop-color:white;stop-opacity:1"/>
      <stop offset="100%" style="stop-color:darkgray;stop-opacity:1"/>
    </linearGradient>
  </defs>

  <!-- Sun -->
  <symbol id="sun">
    <!-- center -->
    <circle cx="50" cy="50" r="20" fill="url(#gradYellow)"/>

    <!-- long rays -->
    <line x1="50" y1="27" x2="50" y2="2" class="longRay"/>
    <line x1="50" y1="73" x2="50" y2="98" class="longRay"/>
    <line x1="27" y1="50" x2="2" y2="50" class="longRay"/>
    <line x1="73" y1="50" x2="98" y2="50" class="longRay"/>
    <line x1="34" y1="34" x2="16" y2="16" class="longRay"/>
    <line x1="66" y1="66" x2="84" y2="84" class="longRay"/>
    <line x1="34" y1="66" x2="16" y2="84" class="longRay"/>
    <line x1="66" y1="34" x2="84" y2="16" class="longRay"/>

    <!-- short rays -->
    <line x1="59" y1="29" x2="66" y2="13" class="shortRay"/>
    <line x1="71" y1="42" x2="87" y2="35" class="shortRay"/>
    <line x1="71" y1="58.5" x2="87" y2="65" class="shortRay"/>
    <line x1="59" y1="71" x2="66" y2="87" class="shortRay"/>
    <line x1="41" y1="71" x2="34" y2="87" class="shortRay"/>
    <line x1="29.5" y1="58.5" x2="13" y2="66" class="shortRay"/>
    <line x1="29" y1="42" x2="13" y2="35" class="shortRay"/>
    <line x1="41" y1="29" x2="35" y2="13" class="shortRay"/>
  </symbol>

  <!-- Small Gray Cloud -->
  <symbol id="grayCloud">
    <path d="M20,15 Q25,0 45,11 Q60,5 60,20 A30,15 5 1,1 20,15 Z"/>
  </symbol>

  <!-- White Cloud -->
  <symbol id="whiteCloud">
    <path fill="url(#gradWhite)"
          d="M11,47 Q13,37 21,42 Q31,30 41,38 A28,21 -25 1,1 35,75 Q23,85 19,73 A12,12 0 0,1 11,47Z"/>
  </symbol>

  <use href="#sun" x="-12" y="-18"/>
  <use href="#grayCloud" class="small-cloud" fill="url(#gradGray)"/>
  <use href="#whiteCloud" x="7"/>
</svg>
