<?xml version="1.0" encoding="UTF-8" standalone="no"?>
<?xml-stylesheet href="styles.css" type="text/css"?>
<!DOCTYPE svg PUBLIC "-//W3C//DTD SVG 1.0//EN" "http://www.w3.org/TR/2001/REC-SVG-20010904/DTD/svg10.dtd">
<svg height="100" width="100" viewBox="0 0 100 100" xmlns="http://www.w3.org/2000/svg">
  <defs>
    <linearGradient id="gradWhite" x1="40%" y1="50%" x2="90%" y2="90%">
      <stop offset="0%" style="stop-color:white;stop-opacity:1"/>
      <stop offset="100%" style="stop-color:darkgray;stop-opacity:1"/>
    </linearGradient>
  </defs>

  <!-- Snow Flake -->
  <symbol id="snowFlake">
    <circle cx="5" cy="5" r="2" fill="lightblue"/>
    <path fill="blue" d="M5,0 L5,10 M0,5 L10,5 M1.5,1.5 L8.5,8.5 M8.5,1.5 L1.5,8.5"/>
    <path fill="blue" d="M3.5,0.25 L5,2 L6.5,0.25 M3.5,9.75 L5,8 L6.5,9.75"/>
    <path fill="blue" d="M0.25,3.5 L2,5 L0.25,6.5 M9.75,3.5 L8,5 L9.75,6.5"/>
    <path fill="blue" d="M0.75,2.90 L2.85,2.85 L2.90,0.75 M7.25,9.35 L7.15,7.15 L9.35,7.25"/>
    <path fill="blue" d="M0.75,7.25 L2.85,7.15 L2.90,9.35 M7.15,0.75 L7.25,2.85 L9.35,2.90"/>
  </symbol>

  <!-- White Cloud -->
  <symbol id="whiteCloud">
    <path fill="url(#gradWhite)"
          d="M11,47 Q13,37 21,42 Q31,30 41,38 A28,21 -25 1,1 35,75 Q23,85 19,73 A12,12 0 0,1 11,47Z"/>
  </symbol>

  <use id="snowFlake1" href="#snowFlake" x="20" y="55"/>
  <use id="snowFlake2" href="#snowFlake" x="35" y="65"/>
  <use id="snowFlake3" href="#snowFlake" x="45" y="60"/>
  <use id="snowFlake4" href="#snowFlake" x="50" y="65"/>
  <use id="snowFlake5" href="#snowFlake" x="63" y="65"/>
  <use id="snowFlake6" href="#snowFlake" x="70" y="55"/>
  <use href="#whiteCloud" x="10" y="-15"/>
</svg>
