<?xml version="1.0" encoding="UTF-8" standalone="no"?>
<?xml-stylesheet href="styles.css" type="text/css"?>
<!DOCTYPE svg PUBLIC "-//W3C//DTD SVG 1.0//EN" "http://www.w3.org/TR/2001/REC-SVG-20010904/DTD/svg10.dtd">
<svg id="IcePellets" height="200" width="200" viewBox="0 0 200 200" xmlns="http://www.w3.org/2000/svg" x="0px" y="0px"
     enable-background="new 0 0 200 200" xml:space="preserve">
  <g id="pellets">
    <circle cx="41.582" cy="62.434" r="1.737" fill="#FFFFFF" stroke="lightblue" stroke-width="4"
            stroke-miterlimit="10"/>
    <circle cx="57.333" cy="62.434" r="1.737" fill="#FFFFFF" stroke="lightblue" stroke-width="4"
            stroke-miterlimit="10"/>
    <circle cx="41.582" cy="72.434" r="1.737" fill="#FFFFFF" stroke="lightblue" stroke-width="4"
            stroke-miterlimit="10"/>
    <circle cx="49.458" cy="75.317" r="1.737" fill="#FFFFFF" stroke="lightblue" stroke-width="4"
            stroke-miterlimit="10"/>
    <circle cx="57.333" cy="72.434" r="1.737" fill="#FFFFFF" stroke="lightblue" stroke-width="4"
            stroke-miterlimit="10"/>
    <circle cx="41.582" cy="82.434" r="1.737" fill="#FFFFFF" stroke="lightblue" stroke-width="4"
            stroke-miterlimit="10"/>
    <circle cx="49.458" cy="65.317" r="1.737" fill="#FFFFFF" stroke="lightblue" stroke-width="4"
            stroke-miterlimit="10"/>
    <circle cx="57.333" cy="82.434" r="1.737" fill="#FFFFFF" stroke="lightblue" stroke-width="4"
            stroke-miterlimit="10"/>
  </g>
  <g id="cloud_pellets">
        <path fill="#FFFFFF" stroke="lightblue" stroke-width="4" stroke-miterlimit="10" d="M59.869,58.217
            c5.628,0,10.458-4.335,10.458-9.963c0-3.413-1.71-6.238-4.286-8.088c-4.996-3.411-9.782,0.155-9.782,0.155
            c0-3.782-3.713-9.781-12.552-9.805c-7.738-0.021-14.049,6.44-14.034,14.178c0.002,0.843,0.014,1.554,0.049,2.191
            c0.214,3.91,2.116,7.6,5.302,9.878c1.192,0.853,2.507,1.43,3.812,1.431"/>
  </g>
</svg>
