<?xml version="1.0" encoding="UTF-8" standalone="no"?>
<?xml-stylesheet href="styles.css" type="text/css"?>
<!DOCTYPE svg PUBLIC "-//W3C//DTD SVG 1.0//EN" "http://www.w3.org/TR/2001/REC-SVG-20010904/DTD/svg10.dtd">
<svg id="patchySleetDay" height="100" width="100" viewBox="0 0 100 100" xmlns="http://www.w3.org/2000/svg" x="0px"
     y="0px"
     enable-background="new 0 0 100 100" xml:space="preserve">
    <g>
        <g id="sun33">
            <circle fill="none" stroke="lightblue" stroke-width="4" stroke-miterlimit="10" cx="52.504" cy="42.831"
                    r="9.283"/>
          <line fill="none" stroke="lightblue" stroke-width="4" stroke-linecap="round" stroke-miterlimit="10" x1="52.598"
                y1="26.263" x2="52.598" y2="22.378"/>
          <line fill="none" stroke="lightblue" stroke-width="4" stroke-linecap="round" stroke-miterlimit="10" x1="52.598"
                y1="59.479" x2="52.598" y2="63.364"/>
          <line fill="none" stroke="lightblue" stroke-width="4" stroke-linecap="round" stroke-miterlimit="10" x1="64.31"
                y1="31.021" x2="67.057" y2="28.274"/>
          <line fill="none" stroke="lightblue" stroke-width="4" stroke-linecap="round" stroke-miterlimit="10" x1="40.824"
                y1="31.083" x2="38.077" y2="28.336"/>
          <line fill="none" stroke="lightblue" stroke-width="4" stroke-linecap="round" stroke-miterlimit="10" x1="64.272"
                y1="54.582" x2="67.019" y2="57.329"/>
          <line fill="none" stroke="lightblue" stroke-width="4" stroke-linecap="round" stroke-miterlimit="10" x1="40.785"
                y1="54.52" x2="38.039" y2="57.267"/>
          <line fill="none" stroke="lightblue" stroke-width="4" stroke-linecap="round" stroke-miterlimit="10" x1="35.797"
                y1="42.802" x2="32.143" y2="42.802"/>
          <line fill="none" stroke="lightblue" stroke-width="4" stroke-linecap="round" stroke-miterlimit="10" x1="69.244"
                y1="42.802" x2="72.899" y2="42.802"/>
        </g>
      <g id="cloud33">
            <path fill="#FFFFFF" stroke="lightblue" stroke-width="4" stroke-miterlimit="10" d="M57.297,66.106
                c5.628,0,10.458-4.335,10.458-9.963c0-3.413-1.71-6.238-4.286-8.088c-4.996-3.411-9.782,0.155-9.782,0.155
                c0-3.782-3.713-9.781-12.552-9.805c-7.738-0.021-14.049,6.44-14.034,14.178c0.002,0.843,0.014,1.554,0.049,2.191
                c0.214,3.91,2.116,7.6,5.302,9.878c1.192,0.853,2.507,1.43,3.812,1.431"/>
        </g>
      <g id="rain33">
            <line fill="none" stroke="lightblue" stroke-width="4" stroke-linecap="round" stroke-miterlimit="10"
                  x1="46.514" y1="63.656" x2="46.514" y2="77.622"/>
        <line fill="none" stroke="lightblue" stroke-width="4" stroke-linecap="round" stroke-miterlimit="10" x1="38.975"
              y1="59.733" x2="38.975" y2="73.698"/>
        </g>
      <g id="snow33">
                <line fill="none" stroke="lightblue" stroke-width="4" stroke-linecap="round" stroke-miterlimit="10"
                      x1="54.719" y1="60.532" x2="54.719" y2="60.203"/>
        <line fill="none" stroke="lightblue" stroke-width="4" stroke-linecap="round" stroke-miterlimit="10" x1="54.719"
              y1="67.533" x2="54.719" y2="67.203"/>
        <line fill="none" stroke="lightblue" stroke-width="4" stroke-linecap="round" stroke-miterlimit="10" x1="54.719"
              y1="74.533" x2="54.719" y2="74.204"/>
        </g>
    </g>
</svg>
