<?xml version="1.0" encoding="UTF-8" standalone="no"?>
<?xml-stylesheet href="styles.css" type="text/css"?>
<!DOCTYPE svg PUBLIC "-//W3C//DTD SVG 1.0//EN" "http://www.w3.org/TR/2001/REC-SVG-20010904/DTD/svg10.dtd">
<svg id="blowingSnow" height="100" width="100" viewBox="0 0 100 100" xmlns="http://www.w3.org/2000/svg" x="0px"
     y="0px"
     enable-background="new 0 0 100 100" xml:space="preserve">
	<g id="cloud_blow">
		<path fill="#FFFFFF" stroke="#000000" stroke-width="4" stroke-miterlimit="10" d="M59.869,58.216
			c5.628,0,10.458-4.335,10.458-9.963c0-3.413-1.71-6.238-4.286-8.088c-4.996-3.411-9.782,0.155-9.782,0.155
			c0-3.782-3.713-9.781-12.552-9.805c-7.738-0.021-14.049,6.44-14.034,14.178c0.002,0.843,0.014,1.554,0.049,2.191
			c0.214,3.91,2.116,7.6,5.302,9.878c1.192,0.853,2.507,1.43,3.812,1.431"/>
	</g>
  <g id="snow_blow">
        <line fill="none" stroke="#000000" stroke-width="4" stroke-linecap="round" stroke-miterlimit="10" x1="39.402"
              y1="60.038" x2="39.402" y2="59.709"/>
    <line fill="none" stroke="#000000" stroke-width="4" stroke-linecap="round" stroke-miterlimit="10" x1="39.402"
          y1="67.039" x2="39.402" y2="66.709"/>
    <line fill="none" stroke="#000000" stroke-width="4" stroke-linecap="round" stroke-miterlimit="10" x1="39.402"
          y1="74.039" x2="39.402" y2="73.709"/>
    <line fill="none" stroke="#000000" stroke-width="4" stroke-linecap="round" stroke-miterlimit="10" x1="47.403"
          y1="63.038" x2="47.403" y2="62.709"/>
    <line fill="none" stroke="#000000" stroke-width="4" stroke-linecap="round" stroke-miterlimit="10" x1="47.403"
          y1="70.039" x2="47.403" y2="69.709"/>
	</g>
  <g id="wind">
		<path fill="none" stroke="#000000" stroke-width="4" stroke-linecap="round" stroke-miterlimit="10" d="M76.257,67.432H63.285
			c-3.163,0-3.373-4.788-0.214-4.945c0.181-0.009,0.372-0.012,0.571-0.008"/>
    <path fill="none" stroke="#000000" stroke-width="4" stroke-linecap="round" stroke-miterlimit="10" d="M76.257,67.477H63.285
			c-3.163,0-3.373,4.788-0.214,4.945c0.181,0.009,0.372,0.012,0.571,0.008"/>
	</g>
</svg>
