<svg height="464pt" viewBox="0 -16 464.12294 464" width="464pt" xmlns="http://www.w3.org/2000/svg"><path d="m426.410156 150.757812c-40.667968-.933593-72.894531-34.640624-72-75.3125.035156-31.410156 18.976563-59.714843 48-71.726562-10.039062-2.769531-20.445312-3.980469-30.855468-3.585938-54.917969 0-99.433594 46.5625-99.433594 104 0 57.441407 44.515625 104 99.433594 104 42.414062-.089843 79.875-27.664062 92.566406-68.132812-11.148438 7.40625-24.328125 11.167969-37.710938 10.757812zm0 0" fill="#fce666"/><path d="m363.15625 336.132812c30.167969.726563 58.359375-14.953124 73.660156-40.964843 15.296875-26.015625 15.296875-58.277344 0-84.289063-15.300781-26.011718-43.492187-41.691406-73.660156-40.96875-5.640625.003906-11.269531.554688-16.800781 1.648438-6.925781-32.023438-35.375-54.792969-68.136719-54.535156-10.015625.003906-19.917969 2.144531-29.039062 6.277343-16.066407-41.285156-59.042969-65.496093-102.679688-57.839843-43.636719 7.652343-75.804688 45.046874-76.855469 89.335937.019531 10.351563 1.855469 20.621094 5.421875 30.335937-27.144531.160157-52.113281 14.878907-65.402344 38.550782-13.285156 23.671875-12.847656 52.652344 1.15625 75.910156 14 23.253906 39.40625 37.207031 66.542969 36.539062" fill="#a3d4f7"/><path d="m201.53125 432.132812 94.589844-144h-64l16-64h-64l-32 96h72z" fill="#ffa754"/></svg>