<?xml version="1.0" encoding="UTF-8" standalone="no"?>
<?xml-stylesheet href="styles.css" type="text/css"?>
<!DOCTYPE svg PUBLIC "-//W3C//DTD SVG 1.0//EN" "http://www.w3.org/TR/2001/REC-SVG-20010904/DTD/svg10.dtd">
<svg version="1.1" id="Layer_1" height="100" width="100" class="container" viewBox="0 0 100 100"
     xmlns="http://www.w3.org/2000/svg" x="0px" y="0px"
     style="enable-background:new 0 0 60.7 40;" xml:space="preserve">
  <g id="Cloud_4">
    <g id="White_cloud_4">
      		      <path id="XMLID_69_" class="white"
                      d="M47.2,40H7.9C3.5,40,0,36.5,0,32.1l0,0c0-4.3,3.5-7.9,7.9-7.9h39.4c4.3,0,7.9,3.5,7.9,7.9v0 C55.1,36.5,51.6,40,47.2,40z"/>
      <circle id="XMLID_68_" class="white" cx="17.4" cy="22.8" r="9.3"/>
      <circle id="XMLID_67_" class="white" cx="34.5" cy="21.1" r="15.6"/>
      <animateTransform attributeName="transform"
                        attributeType="XML"
                        dur="6s"
                        keyTimes="0;0.5;1"
                        repeatCount="indefinite"
                        type="translate"
                        values="0;5;0"
                        calcMode="linear"/>
    </g>

    <g id="Gray_cloud_4">
      		      <path id="XMLID_65_" class="gray"
                      d="M54.7,22.3H33.4c-3.3,0-6-2.7-6-6v0c0-3.3,2.7-6,6-6h21.3c3.3,0,6,2.7,6,6v0 C60.7,19.6,58,22.3,54.7,22.3z"/>
      <circle id="XMLID_64_" class="gray" cx="45.7" cy="10.7" r="10.7"/>
      <animateTransform attributeName="transform"
                        attributeType="XML"
                        dur="6s"
                        keyTimes="0;0.5;1"
                        repeatCount="indefinite"
                        type="translate"
                        values="0;-3;0"
                        calcMode="linear"/>
    </g>

    <g id="Lightning_4">
      		      <path id="XMLID_79_" class="yellow" d="M43.6,22.7c-0.2,0.6-0.4,1.3-0.6,1.9c-0.2,0.6-0.4,1.2-0.7,1.8c-0.4,1.2-0.9,2.4-1.5,3.5
      			c-1,2.3-2.2,4.6-3.4,6.8l-1.7-2.9c3.2-0.1,6.3-0.1,9.5,0l3,0.1l-1.3,2.5c-1.1,2.1-2.2,4.2-3.5,6.2c-0.6,1-1.3,2-2,3
      			c-0.7,1-1.4,2-2.2,2.9c0.2-1.2,0.5-2.4,0.8-3.5c0.3-1.2,0.6-2.3,1-3.4c0.7-2.3,1.5-4.5,2.4-6.7l1.7,2.7c-3.2,0.1-6.3,0.2-9.5,0
      			l-3.4-0.1l1.8-2.8c1.4-2.1,2.8-4.2,4.3-6.2c0.8-1,1.6-2,2.4-3c0.4-0.5,0.8-1,1.3-1.5C42.7,23.7,43.1,23.2,43.6,22.7z"/>
      <animate attributeName="opacity"
               attributeType="XML"
               dur="1.5s"
               keyTimes="0;0.5;1"
               repeatCount="indefinite"
               values="1;0;1"
               calcMode="linear"/>
    </g>
  </g>
</svg>
