<?xml version="1.0" encoding="UTF-8" standalone="no"?>
<?xml-stylesheet href="styles.css" type="text/css"?>
<!DOCTYPE svg PUBLIC "-//W3C//DTD SVG 1.0//EN" "http://www.w3.org/TR/2001/REC-SVG-20010904/DTD/svg10.dtd">
<svg version="1.1" id="Layer_1" height="100" width="100" class="container" viewBox="0 0 100 100"
     xmlns="http://www.w3.org/2000/svg" x="0px" y="0px"
     style="enable-background:new 0 0 60.7 40;" xml:space="preserve">
<g id="Cloud_2">
  <g id="Rain_2">
    <path id="rain_2_left" class="white"
          d="M20.7,46.4c0,1.7-1.4,3.1-3.1,3.1s-3.1-1.4-3.1-3.1c0-1.7,3.1-7.8,3.1-7.8 S20.7,44.7,20.7,46.4z"/>
    <path id="rain_2_mid" class="white"
          d="M31.4,46.4c0,1.7-1.4,3.1-3.1,3.1c-1.7,0-3.1-1.4-3.1-3.1c0-1.7,3.1-7.8,3.1-7.8 S31.4,44.7,31.4,46.4z"/>
    <path id="rain_2_right" class="white"
          d="M41.3,46.4c0,1.7-1.4,3.1-3.1,3.1c-1.7,0-3.1-1.4-3.1-3.1c0-1.7,3.1-7.8,3.1-7.8 S41.3,44.7,41.3,46.4z"/>
    <animateTransform attributeName="transform"
                      attributeType="XML"
                      dur="1s"
                      keyTimes="0;1"
                      repeatCount="indefinite"
                      type="translate"
                      values="0 0;0 10"
                      calcMode="linear"/>

    <animate attributeName="opacity"
             attributeType="XML"
             dur="1s"
             keyTimes="0;1"
             repeatCount="indefinite"
             values="1;0"
             calcMode="linear"/>
  </g>

  <g id="White_cloud_2">
    <path id="XMLID_14_" class="white"
          d="M47.2,34.5H7.9c-4.3,0-7.9-3.5-7.9-7.9l0,0c0-4.3,3.5-7.9,7.9-7.9h39.4c4.3,0,7.9,3.5,7.9,7.9 v0C55.1,30.9,51.6,34.5,47.2,34.5z"/>
    <circle id="XMLID_13_" class="white" cx="17.4" cy="17.3" r="9.3"/>
    <circle id="XMLID_10_" class="white" cx="34.5" cy="15.6" r="15.6"/>
  </g>
</g>
</svg>
